<?xml version="1.0" standalone="no"?>
<!DOCTYPE svg PUBLIC "-//W3C//DTD SVG 20010904//EN"
 "http://www.w3.org/TR/2001/REC-SVG-20010904/DTD/svg10.dtd">
<svg version="1.0" xmlns="http://www.w3.org/2000/svg"
 width="540.000000pt" height="360.000000pt" viewBox="0 0 540.000000 360.000000"
 preserveAspectRatio="xMidYMid meet">

<g transform="translate(0.000000,360.000000) scale(0.100000,-0.100000)"
fill="#000000" stroke="none">
<path d="M0 1800 l0 -1800 2700 0 2700 0 0 1800 0 1800 -2700 0 -2700 0 0
-1800z m3067 604 c60 -44 63 -63 61 -349 l-2 -260 -6 270 c-4 236 -7 273 -23
296 -31 47 -49 49 -366 49 -294 0 -299 0 -332 -23 -61 -41 -60 -23 -55 -802 2
-390 1 -692 -4 -670 -4 22 -7 58 -5 80 2 22 1 35 -2 28 -3 -9 -12 -9 -31 -2
-18 7 -28 7 -30 0 -2 -6 -11 -11 -20 -11 -15 0 -15 -2 -2 -10 12 -8 12 -10 -5
-10 -11 0 -49 -5 -85 -9 -36 -5 -121 -16 -190 -25 -199 -26 -180 -15 -180
-102 l0 -74 -57 -26 -58 -25 -185 36 c-102 19 -195 38 -207 40 -28 6 -28 2
-11 294 11 192 14 214 30 219 10 2 23 21 30 44 6 22 21 46 32 54 25 17 88 18
104 2 9 -9 12 -8 12 5 0 35 30 75 63 86 44 15 80 2 124 -45 l33 -35 0 98 0 99
52 10 c50 9 53 10 60 48 18 88 82 153 160 163 56 8 124 -14 150 -49 13 -16 41
-47 63 -68 35 -35 44 -38 77 -34 36 5 38 4 38 -20 0 -14 6 -26 13 -26 9 0 13
76 14 342 3 335 3 344 25 373 25 35 44 48 77 55 14 3 156 5 317 5 280 0 294
-1 321 -21z m570 -369 c99 -29 197 -146 205 -245 3 -42 5 -44 47 -54 l43 -11
-3 -175 c-1 -96 -3 -204 -3 -240 l-1 -65 122 -10 c67 -5 127 -15 134 -22 8 -8
9 -78 4 -263 -7 -220 -10 -255 -25 -270 -16 -16 -16 -18 4 -27 12 -5 15 -8 8
-6 -7 1 -10 -2 -7 -8 13 -20 -5 -57 -32 -67 -16 -5 -55 -10 -87 -11 -33 -1
-89 -8 -125 -17 -69 -16 -164 -12 -189 8 -7 6 -64 12 -127 13 -78 2 -120 7
-131 16 -9 7 -28 12 -42 11 -18 -1 -39 9 -61 28 -31 27 -33 33 -27 70 3 22 2
40 -2 40 -12 0 -12 7 -11 249 0 117 5 239 11 270 13 67 13 82 -2 231 -15 159
-33 249 -50 260 -13 9 -13 10 0 11 10 0 8 3 -5 8 -12 5 -25 4 -33 -2 -10 -8
-16 -7 -22 3 -12 20 -23 7 -22 -27 0 -27 -23 -82 -38 -93 -4 -3 -12 -14 -18
-25 -9 -16 -11 2 -12 88 l0 107 46 0 c37 0 45 -3 40 -15 -3 -8 -2 -15 3 -15
13 0 21 40 8 41 -8 0 -8 2 1 6 6 2 10 9 7 13 -10 16 91 105 141 124 27 10 60
29 74 42 50 45 96 53 177 29z m-367 -376 c0 -17 -20 -29 -20 -11 0 4 -3 18 -7
32 -6 22 -5 24 10 11 9 -7 17 -22 17 -32z m-143 -241 c-3 -8 -6 -5 -6 6 -1 11
2 17 5 13 3 -3 4 -12 1 -19z m0 -200 c-2 -13 -4 -3 -4 22 0 25 2 35 4 23 2
-13 2 -33 0 -45z m0 -150 c-2 -24 -4 -7 -4 37 0 44 2 63 4 43 2 -21 2 -57 0
-80z m0 -145 c-2 -16 -4 -5 -4 22 0 28 2 40 4 28 2 -13 2 -35 0 -50z m-17 -66
c0 -2 -10 -12 -22 -23 l-23 -19 19 23 c18 21 26 27 26 19z m-55 -47 c-3 -5
-14 -10 -23 -9 -14 0 -13 2 3 9 27 11 27 11 20 0z m-608 -6 c-3 -3 -12 -4 -19
-1 -8 3 -5 6 6 6 11 1 17 -2 13 -5z m-1062 -44 c-4 -7 2 -9 17 -5 12 2 79 -5
148 -18 115 -20 125 -24 127 -44 2 -18 -2 -23 -21 -23 -14 0 -26 -5 -28 -11
-2 -6 -37 -15 -78 -19 -66 -6 -84 -4 -145 18 -85 30 -97 39 -90 63 5 14 1 19
-14 19 -12 0 -21 4 -21 9 0 4 12 6 28 4 21 -4 24 -2 12 6 -12 8 -5 11 28 11
27 0 41 -4 37 -10z m-78 -36 c-3 -3 -12 -4 -19 -1 -8 3 -5 6 6 6 11 1 17 -2
13 -5z"/>
<path d="M1910 1783 c-31 -25 -43 -47 -60 -105 -8 -27 -7 -28 31 -28 33 0 42
5 61 34 30 45 78 77 129 83 l42 6 -34 18 c-20 11 -56 18 -86 19 -42 0 -58 -5
-83 -27z"/>
<path d="M2043 1725 c-28 -12 -70 -52 -62 -59 2 -1 39 2 82 7 60 8 77 14 72
25 -3 7 -5 17 -5 22 0 14 -58 17 -87 5z"/>
<path d="M2255 1600 c-3 -5 -1 -10 6 -10 7 0 8 -4 2 -12 -5 -7 -9 -35 -9 -62
1 -41 5 -52 28 -69 14 -10 31 -16 37 -13 26 16 5 122 -31 158 -21 21 -25 22
-33 8z"/>
<path d="M1945 1553 c-4 -16 -10 -36 -16 -45 -17 -32 -11 -76 11 -83 46 -15
57 0 59 80 2 74 2 75 -23 75 -20 0 -27 -6 -31 -27z m5 -78 c0 -8 -4 -17 -10
-20 -6 -4 -10 5 -10 20 0 15 4 24 10 20 6 -3 10 -12 10 -20z"/>
<path d="M1531 1454 c-19 -24 -20 -79 -1 -115 8 -14 157 -46 168 -35 11 11
-32 106 -61 134 -44 42 -81 48 -106 16z"/>
<path d="M1390 1380 c-28 -28 -17 -40 36 -40 47 0 54 8 27 32 -33 28 -42 29
-63 8z"/>
<path d="M2331 1264 c0 -11 3 -14 6 -6 3 7 2 16 -1 19 -3 4 -6 -2 -5 -13z"/>
<path d="M3506 1995 c-17 -13 -17 -15 -3 -15 31 0 83 -32 105 -64 15 -22 22
-47 22 -78 l0 -46 50 -11 c96 -21 130 -24 130 -13 0 30 -44 123 -75 160 -57
66 -182 103 -229 67z"/>
<path d="M3375 1921 c-22 -10 -50 -29 -62 -43 l-23 -24 72 -12 c39 -7 73 -11
75 -8 6 6 -9 106 -16 105 -3 0 -24 -9 -46 -18z"/>
<path d="M3469 1935 c-3 -2 0 -29 5 -60 11 -58 12 -59 79 -71 l37 -6 0 42 c0
52 -42 100 -88 100 -16 0 -31 -2 -33 -5z"/>
</g>
</svg>
